<svg width="40" height="40" viewBox="0 0 40 40" fill="none" xmlns="http://www.w3.org/2000/svg">
<path d="M20 15.8663C19.1825 15.8663 18.3833 16.1088 17.7036 16.5629C17.0239 17.0171 16.4941 17.6626 16.1813 18.4179C15.8684 19.1732 15.7866 20.0043 15.9461 20.806C16.1056 21.6078 16.4992 22.3443 17.0773 22.9224C17.6553 23.5004 18.3918 23.8941 19.1936 24.0536C19.9954 24.2131 20.8265 24.1312 21.5817 23.8184C22.337 23.5055 22.9825 22.9758 23.4367 22.296C23.8909 21.6163 24.1333 20.8172 24.1333 19.9997C24.1333 19.4569 24.0264 18.9194 23.8187 18.4179C23.611 17.9164 23.3065 17.4608 22.9227 17.077C22.5389 16.6932 22.0832 16.3887 21.5817 16.181C21.0803 15.9733 20.5428 15.8663 20 15.8663V15.8663ZM36.55 11.783C36.5412 10.4959 36.3042 9.22063 35.85 8.01634C35.5155 7.13511 34.9979 6.33483 34.3313 5.66832C33.6648 5.0018 32.8645 4.4842 31.9833 4.14967C30.779 3.69545 29.5037 3.45844 28.2166 3.44967C26.0666 3.33301 25.4333 3.33301 20 3.33301C14.5666 3.33301 13.9333 3.33301 11.7833 3.44967C10.4962 3.45844 9.22093 3.69545 8.01665 4.14967C7.13541 4.4842 6.33514 5.0018 5.66862 5.66832C5.00211 6.33483 4.48451 7.13511 4.14998 8.01634C3.69575 9.22063 3.45875 10.4959 3.44998 11.783C3.33331 13.933 3.33331 14.5663 3.33331 19.9997C3.33331 25.433 3.33331 26.0663 3.44998 28.2163C3.46792 29.5079 3.7046 30.7872 4.14998 31.9997C4.48303 32.8769 5.00019 33.6725 5.66665 34.333C6.3303 35.0035 7.1323 35.5211 8.01665 35.8497C9.22093 36.3039 10.4962 36.5409 11.7833 36.5497C13.9333 36.6663 14.5666 36.6663 20 36.6663C25.4333 36.6663 26.0666 36.6663 28.2166 36.5497C29.5037 36.5409 30.779 36.3039 31.9833 35.8497C32.8677 35.5211 33.6697 35.0035 34.3333 34.333C34.9998 33.6725 35.5169 32.8769 35.85 31.9997C36.3038 30.7895 36.5407 29.5088 36.55 28.2163C36.6666 26.0663 36.6666 25.433 36.6666 19.9997C36.6666 14.5663 36.6666 13.933 36.55 11.783V11.783ZM32.3166 25.1163C32.2632 26.1448 32.0437 27.1579 31.6666 28.1163C31.3431 28.9158 30.8621 29.6421 30.2522 30.2519C29.6424 30.8618 28.9161 31.3428 28.1166 31.6663C27.1492 32.0223 26.1304 32.2193 25.1 32.2497C23.7833 32.2497 23.4333 32.2497 20 32.2497C16.5666 32.2497 16.2166 32.2497 14.9 32.2497C13.8695 32.2193 12.8508 32.0223 11.8833 31.6663C11.0568 31.3592 10.3104 30.8692 9.69998 30.233C9.09609 29.6351 8.62972 28.9128 8.33331 28.1163C7.97591 27.1499 7.78432 26.13 7.76665 25.0997C7.76665 23.783 7.76665 23.433 7.76665 19.9997C7.76665 16.5663 7.76665 16.2163 7.76665 14.8997C7.78432 13.8694 7.97591 12.8495 8.33331 11.883C8.64045 11.0565 9.13044 10.3101 9.76665 9.69968C10.3672 9.09905 11.0888 8.63316 11.8833 8.33301C12.8508 7.97702 13.8695 7.78002 14.9 7.74967V7.74967C16.2166 7.74967 16.5666 7.74967 20 7.74967C23.4333 7.74967 23.7833 7.74967 25.1 7.74967C26.1304 7.78002 27.1492 7.97702 28.1166 8.33301C28.9431 8.64014 29.6895 9.13013 30.3 9.76634C30.9039 10.3643 31.3702 11.0866 31.6666 11.883C32.0226 12.8505 32.2196 13.8692 32.25 14.8997C32.25 16.2163 32.25 16.5663 32.25 19.9997C32.25 23.433 32.3666 23.783 32.3166 25.0997V25.1163ZM29.65 12.7163C29.4515 12.178 29.1387 11.6891 28.733 11.2834C28.3272 10.8776 27.8383 10.5648 27.3 10.3663C26.5608 10.1101 25.7822 9.98599 25 9.99967C23.7 9.99967 23.3333 9.99967 20 9.99967C16.6666 9.99967 16.3 9.99967 15 9.99967C14.2138 10.0074 13.4351 10.1541 12.7 10.433C12.1699 10.6224 11.6861 10.9225 11.281 11.3133C10.8758 11.7042 10.5584 12.1767 10.35 12.6997C10.1079 13.442 9.98969 14.219 9.99998 14.9997C9.99998 16.2997 9.99998 16.6663 9.99998 19.9997C9.99998 23.333 9.99998 23.6997 9.99998 24.9997C10.0165 25.785 10.1629 26.5622 10.4333 27.2997C10.6318 27.838 10.9446 28.3269 11.3503 28.7327C11.7561 29.1384 12.245 29.4512 12.7833 29.6497C13.4944 29.9112 14.2427 30.0575 15 30.083V30.083C16.3 30.083 16.6666 30.083 20 30.083C23.3333 30.083 23.7 30.083 25 30.083C25.7862 30.0753 26.5649 29.9286 27.3 29.6497C27.8383 29.4512 28.3272 29.1384 28.733 28.7327C29.1387 28.3269 29.4515 27.838 29.65 27.2997C29.9289 26.5646 30.0756 25.7859 30.0833 24.9997C30.0833 23.6997 30.0833 23.333 30.0833 19.9997C30.0833 16.6663 30.0833 16.2997 30.0833 14.9997C30.0838 14.2127 29.9368 13.4325 29.65 12.6997V12.7163ZM20 26.3663C19.1647 26.3663 18.3376 26.2015 17.5661 25.8814C16.7946 25.5612 16.0938 25.092 15.5039 24.5006C14.9141 23.9092 14.4467 23.2072 14.1286 22.4348C13.8104 21.6625 13.6478 20.835 13.65 19.9997V19.9997C13.65 18.7398 14.0238 17.5082 14.7241 16.4608C15.4244 15.4135 16.4198 14.5974 17.5841 14.1161C18.7484 13.6347 20.0294 13.5096 21.2649 13.7566C22.5003 14.0036 23.6347 14.6116 24.5245 15.5037C25.4142 16.3957 26.0192 17.5317 26.263 18.7678C26.5068 20.004 26.3783 21.2846 25.8939 22.4477C25.4094 23.6107 24.5908 24.6039 23.5416 25.3015C22.4925 25.999 21.2599 26.3696 20 26.3663V26.3663ZM26.6666 14.883C26.2982 14.844 25.9573 14.67 25.7095 14.3946C25.4617 14.1192 25.3245 13.7618 25.3245 13.3913C25.3245 13.0209 25.4617 12.6635 25.7095 12.3881C25.9573 12.1126 26.2982 11.9387 26.6666 11.8997V11.8997C27.0351 11.9387 27.376 12.1126 27.6238 12.3881C27.8716 12.6635 28.0088 13.0209 28.0088 13.3913C28.0088 13.7618 27.8716 14.1192 27.6238 14.3946C27.376 14.67 27.0351 14.844 26.6666 14.883Z" fill="white" fill-opacity="0.75"/>
</svg>
