<svg width="40" height="40" viewBox="0 0 40 40" fill="none" xmlns="http://www.w3.org/2000/svg">
<path d="M19.9905 3.33301C16.6942 3.33301 13.4718 4.31049 10.731 6.14185C7.9902 7.9732 5.854 10.5762 4.59253 13.6216C3.33107 16.6671 3.00102 20.0182 3.64411 23.2512C4.28719 26.4842 5.87454 29.4539 8.20541 31.7848C10.5363 34.1157 13.506 35.703 16.739 36.3461C19.972 36.9892 23.3231 36.6591 26.3686 35.3977C29.414 34.1362 32.017 32 33.8484 29.2592C35.6797 26.5184 36.6572 23.296 36.6572 19.9997C36.6574 17.8109 36.2264 15.6436 35.3889 13.6214C34.5514 11.5992 33.3237 9.76184 31.776 8.21416C30.2284 6.66648 28.391 5.43883 26.3688 4.60131C24.3466 3.7638 22.1793 3.33283 19.9905 3.33301ZM25.2897 28.5871C25.2273 28.7427 25.1324 28.8831 25.0113 28.999C24.8902 29.1148 24.7458 29.2035 24.5876 29.259C24.4295 29.3144 24.2613 29.3355 24.0944 29.3206C23.9274 29.3058 23.7656 29.2554 23.6197 29.173L19.0953 25.6573L16.1914 28.3363C16.124 28.3861 16.0452 28.4182 15.9622 28.4295C15.8792 28.4408 15.7947 28.4311 15.7164 28.4012L16.2731 23.4205L16.2909 23.4346L16.3023 23.3363C16.3023 23.3363 24.4439 15.9238 24.7756 15.6079C25.1114 15.2929 25.0006 15.2246 25.0006 15.2246C25.0197 14.8404 24.3981 15.2246 24.3981 15.2246L13.6105 22.1647L9.11804 20.6347C9.11804 20.6347 8.42804 20.3872 8.36304 19.843C8.29471 19.303 9.14053 19.0097 9.14053 19.0097L27.0022 11.9138C27.0022 11.9138 28.4705 11.2596 28.4705 12.343L25.2897 28.5871Z" fill="white" fill-opacity="0.75"/>
</svg>
